Coordinates
version=1
nRows=24
nColumns=24
inDegrees=yes

Units are S.I. units (second, meters, Newtons, ...)
Angles are in degrees.

endheader
time	pelvis_tilt	pelvis_list	pelvis_rotation	pelvis_tx	pelvis_ty	pelvis_tz	hip_flexion_r	hip_adduction_r	hip_rotation_r	knee_angle_r	ankle_angle_r	subtalar_angle_r	mtp_angle_r	hip_flexion_l	hip_adduction_l	hip_rotation_l	knee_angle_l	ankle_angle_l	subtalar_angle_l	mtp_angle_l	lumbar_extension	lumbar_bending	lumbar_rotation
      0.66200000	     -1.86469770	      3.76270213	      4.01882446	     -0.00900593	      0.96485976	      0.26002469	     26.99362689	     -5.79097557	     -4.99578934	      4.02034346	      4.36153819	     -5.06316568	     -0.09624316	    -24.50819278	      6.20573457	     10.73440288	      3.17267058	     11.52715931	     -5.78164235	     -0.15262509	     -9.25157386	      6.81093328	    -14.61000427
      0.66616667	     -1.92994458	      3.59957960	      4.04745939	     -0.00313314	      0.96416825	      0.26038911	     27.08319664	     -5.59334336	     -4.50832426	      3.50613438	      4.06064444	     -5.61346948	     -0.13807023	    -24.60259681	      6.00418579	     10.60121235	      2.82453801	     11.52304680	     -5.61189868	     -0.31761054	     -9.16867759	      7.03591006	    -14.52567525
      0.67033333	     -2.02195387	      3.43447746	      4.07240248	      0.00277147	      0.96347289	      0.26077695	     27.22211714	     -5.39056371	     -4.03143922	      2.91459664	      3.79210634	     -6.12533236	     -0.17454607	    -24.63809229	      5.80872672	     10.41142706	      2.41438380	     11.52171754	     -5.39140342	     -0.43599838	     -9.03675666	      7.27008738	    -14.50041661
      0.67450000	     -2.12075565	      3.25135723	      4.08355564	      0.00873326	      0.96278870	      0.26119498	     27.37852071	     -5.16086106	     -3.56851970	      2.28099312	      3.46747883	     -6.62492957	     -0.20226283	    -24.66457267	      5.60103766	     10.20468695	      2.00358254	     11.49122409	     -5.17482704	     -0.49839290	     -8.89120784	      7.52773907	    -14.46062529
      0.67866667	     -2.22893121	      3.04415189	      4.09267473	      0.01475141	      0.96211895	      0.26163383	     27.54192996	     -4.90288240	     -3.12622547	      1.63432129	      3.08566256	     -7.12610586	     -0.22242725	    -24.66908263	      5.37143564	      9.98776343	      1.56798896	     11.44493249	     -4.96707525	     -0.51622681	     -8.74501410	      7.81136216	    -14.41924571
      0.68283333	     -2.32258840	      2.83542393	      4.09923454	      0.02080449	      0.96150371	      0.26208343	     27.69431377	     -4.63815878	     -2.71363561	      0.96634632	      2.63014685	     -7.64147536	     -0.23509567	    -24.67303064	      5.14241324	      9.74988070	      1.10070240	     11.39365407	     -4.75564402	     -0.48967282	     -8.58786733	      8.10360749	    -14.36790127
      0.68700000	     -2.42473570	      2.60337595	      4.10104013	      0.02691044	      0.96090627	      0.26255414	     27.85772308	     -4.34574978	     -2.32969515	      0.28396919	      2.12770453	     -8.13596445	     -0.23763020	    -24.65802002	      4.89292962	      9.50223126	      0.61598229	     11.31423403	     -4.55556239	     -0.41495549	     -8.43270542	      8.41743797	    -14.31693565
      0.69116667	     -2.53800928	      2.35921959	      4.09708091	      0.03306766	      0.96031877	      0.26304520	     28.04192375	     -4.03727452	     -1.98216100	     -0.42140181	      1.57037685	     -8.61393490	     -0.22972962	    -24.62738259	      4.63376968	      9.25906994	      0.12472835	     11.20161914	     -4.37416920	     -0.29895789	     -8.25964530	      8.74443771	    -14.26137992
      0.69533333	     -2.64314271	      2.10334778	      4.08842065	      0.03926382	      0.95977632	      0.26355899	     28.22277994	     -3.71213729	     -1.66913500	     -1.14302592	      0.97238230	     -9.08649828	     -0.20903480	    -24.58945109	      4.36485429	      8.99696473	     -0.39553018	     11.06664776	     -4.20749674	     -0.13230095	     -8.08673761	      9.08524382	    -14.20264683
      0.69950000	     -2.75460296	      1.83683035	      4.07674899	      0.04550691	      0.95925206	      0.26408698	     28.41664328	     -3.37509740	     -1.39016762	     -1.87898444	      0.33530358	     -9.53962788	     -0.17587940	    -24.53691895	      4.08652708	      8.73673574	     -0.93153075	     10.90220433	     -4.04416626	      0.08267341	     -7.90658990	      9.44016413	    -14.14305560
      0.70366667	     -2.84853215	      1.53742211	      4.05242241	      0.05182588	      0.95877900	      0.26459557	     28.61302164	     -3.00616218	     -1.22739995	     -2.66890625	     -0.21526615	     -9.76233432	     -0.15887471	    -24.51283174	      3.78180497	      8.50558331	     -1.44268011	     10.63339331	     -4.02589512	      0.19490223	     -7.74411955	      9.86135449	    -14.07783691
      0.70783333	     -2.97675839	      1.28151360	      4.03829856	      0.05810456	      0.95829779	      0.26518183	     28.83424489	     -2.67307550	     -0.95105098	     -3.42254439	     -0.98255347	    -10.38179429	     -0.09854423	    -24.39418687	      3.51500271	      8.20504758	     -2.07417546	     10.47740672	     -3.78874879	      0.53026680	     -7.54422806	     10.18057375	    -14.02120606
      0.71200000	     -3.06132419	      0.96629264	      4.00241379	      0.06450284	      0.95789335	      0.26572891	     29.03993345	     -2.28484335	     -0.86420459	     -4.25656890	     -1.54027644	    -10.55359974	     -0.07182056	    -24.35975247	      3.19716687	      7.96389486	     -2.62072190	     10.13628820	     -3.77976021	      0.67896492	     -7.39911768	     10.61150017	    -13.95352141
      0.71616667	     -3.17423269	      0.69408413	      3.95449083	      0.07086225	      0.95746446	      0.26636179	     29.29294802	     -1.92628992	     -0.70492953	     -5.11729209	     -2.19123256	    -10.95935089	      1.15107442	    -24.20328114	      2.92114788	      7.46543777	     -3.34849725	      9.90237543	     -3.37706064	      6.03669240	     -7.21752794	     10.95580097	    -13.82883064
      0.72033333	     -3.26741010	      0.39634753	      3.93520502	      0.07728825	      0.95713378	      0.26693086	     29.49925969	     -1.55881298	     -0.61345356	     -5.93845976	     -2.86465818	    -11.36144793	      1.16231480	    -24.13288578	      2.61460008	      7.32092756	     -3.94120725	      9.47485576	     -3.48357994	      6.11477900	     -7.04117833	     11.36309336	    -13.83002123
      0.72450000	     -3.34456087	      0.09044830	      3.88416562	      0.08376344	      0.95683260	      0.26752883	     29.72780215	     -1.17546972	     -0.58813583	     -6.85309921	     -3.35881611	    -11.54594253	      1.17148142	    -24.06522224	      2.31008832	      7.08883930	     -4.56065870	      9.02347558	     -3.50431254	      6.17914949	     -6.89397716	     11.78251951	    -13.76322919
      0.72866667	     -3.46867568	     -0.18213517	      3.84132029	      0.09020233	      0.95649974	      0.26817549	     30.00538001	     -0.82285914	     -0.50533642	     -7.76533352	     -3.92615613	    -11.93923075	      1.21436508	    -23.88100004	      2.03493093	      6.79011372	     -5.31606311	      8.67307437	     -3.36507354	      6.44133867	     -6.69233116	     12.13296664	    -13.70683908
      0.73283333	     -3.50516496	     -0.48228053	      3.78019693	      0.09672776	      0.95630524	      0.26878445	     30.21131591	     -0.44369006	     -0.53659634	     -8.74544719	     -4.29217287	    -12.07498034	      1.22805620	    -23.82996469	      1.73663981	      6.55262237	     -5.98011017	      8.14290139	     -3.39332442	      6.53783576	     -6.58058180	     12.56128541	    -13.64472897
      0.73700000	     -3.60019110	     -0.77774559	      3.71309378	      0.10323637	      0.95605258	      0.26947565	     30.47700163	     -0.06102302	     -0.51780116	     -9.72010372	     -4.68842765	    -12.35140412	      2.03268777	    -23.64417785	      1.43686788	      6.17674280	     -6.77859397	      7.62488983	     -3.23845024	     11.84505415	     -6.43565578	     12.93294551	    -13.52252446
      0.74116667	     -3.68163713	     -1.04317485	      3.64618523	      0.10975546	      0.95586181	      0.27013720	     30.74712730	      0.28546568	     -0.54125194	    -10.75519010	     -4.94507833	    -12.49636526	      2.03733594	    -23.48270191	      1.17576819	      5.94120648	     -7.55978824	      7.05041264	     -3.25077472	     11.90688620	     -6.27790678	     13.29898707	    -13.52564724
      0.74533333	     -3.72980259	     -1.33120019	      3.56787681	      0.11631759	      0.95573808	      0.27081990	     30.97650866	      0.66162898	     -0.57153995	    -11.79504305	     -5.11137837	    -12.63775858	      2.04023767	    -23.35423625	      0.89102962	      5.70335945	     -8.33731998	      6.42132526	     -3.25870060	     11.97830744	     -6.17666798	     13.69041314	    -13.47656316
      0.74950000	     -3.78654154	     -1.60159854	      3.48396073	      0.12287553	      0.95562882	      0.27152204	     31.22020106	      1.02341656	     -0.59432570	    -12.85990622	     -5.19866141	    -12.76566126	      2.04321148	    -23.18322769	      0.62449767	      5.44636667	     -9.17659723	      5.77077439	     -3.23847497	     12.09895274	     -6.05659011	     14.05992560	    -13.42688574
      0.75366667	     -3.82960590	     -1.86283491	      3.39657214	      0.12943866	      0.95556597	      0.27224153	     31.44802687	      1.37958232	     -0.61892040	    -13.93603034	     -5.20168499	    -12.88040095	      2.04476132	    -23.00464879	      0.36518459	      5.19238753	    -10.05328787	      5.08402712	     -3.21314037	     12.25347445	     -5.95274092	     14.41923628	    -13.38123397
      0.75783333	     -3.92807636	     -2.06609052	      3.32374921	      0.13593073	      0.95543495	      0.27294754	     31.76942949	      1.66097501	     -0.68490437	    -15.10062323	     -5.07175421	    -12.84428447	      2.03264345	    -22.68815222	      0.15517262	      4.88733217	    -11.08365178	      4.48417904	     -3.04856017	     12.90157660	     -5.77037230	     14.68247960	    -13.35329124
